<?xml version="1.0" encoding="UTF-8"?>
<!-- Generator: Adobe Illustrator 17.0.0, SVG Export Plug-In . SVG Version: 6.00 Build 0)  -->
<!DOCTYPE svg PUBLIC "-//W3C//DTD SVG 1.1//EN" "http://www.w3.org/Graphics/SVG/1.1/DTD/svg11.dtd">
<svg version="1.1" id="Layer_1" xmlns="http://www.w3.org/2000/svg" xmlns:xlink="http://www.w3.org/1999/xlink" x="0px" y="0px" width="236px" height="53px" viewBox="0 0 236 53" enable-background="new 0 0 236 53" xml:space="preserve">
<g>
	<g>
		<path fill="#628097" d="M74.408,21.233c0-3.616-2.939-6.559-6.551-6.559c-3.611,0-6.551,2.943-6.551,6.559    c0,3.621,2.94,6.564,6.551,6.564C71.469,27.797,74.408,24.853,74.408,21.233z"/>
		<path fill="#628097" d="M71.379,0H21.278C9.525,0,0,9.494,0,21.204C0,30.781,6.375,38.871,15.124,41.5V21.233    c0-6.066,4.932-11.004,10.994-11.004c6.063,0,10.997,4.938,10.997,11.004c0,6.07-4.934,11.005-10.997,11.005    c-2.451,0-4.719-0.808-6.551-2.17v22.431l13.797-10.089h23.498V21.233c0-6.066,4.931-11.004,10.995-11.004    c6.061,0,10.996,4.938,10.996,11.004c0,6.07-4.935,11.005-10.996,11.005c-2.454,0-4.72-0.808-6.551-2.17v12.342h10.073    c11.75,0,21.279-9.494,21.279-21.205C92.658,9.494,83.129,0,71.379,0z M52.494,14.671c-0.073-0.004-6.055,0.029-6.472,6.63v8.736    c0,1.225-0.994,2.223-2.22,2.223c-1.229,0-2.223-0.999-2.223-2.223l0.004-8.93c0.532-9.189,8.371-10.967,11.074-10.877    c1.224,0.047,2.183,1.077,2.138,2.303C54.75,13.757,53.717,14.707,52.494,14.671z"/>
		<path fill="#628097" d="M32.672,21.233c0-3.616-2.939-6.559-6.554-6.559c-3.61,0-6.551,2.943-6.551,6.559    c0,3.621,2.941,6.564,6.551,6.564C29.733,27.797,32.672,24.853,32.672,21.233z"/>
	</g>
	<g>
		<path fill="#628097" d="M116.359,16.923h-0.973l-0.796-2.129h-3.179l-0.748,2.129h-0.978l2.875-7.596h0.911L116.359,16.923z     M114.303,13.993l-1.178-3.236c-0.038-0.107-0.077-0.276-0.115-0.509h-0.021c-0.033,0.215-0.074,0.385-0.118,0.509l-1.167,3.236    H114.303z"/>
		<path fill="#628097" d="M131.644,9.326l-2.118,7.596h-1.031l-1.541-5.552c-0.067-0.236-0.107-0.494-0.121-0.773h-0.021    c-0.021,0.261-0.067,0.516-0.136,0.763l-1.553,5.562h-1.019l-2.197-7.596h0.967l1.595,5.827c0.067,0.243,0.108,0.498,0.126,0.763    h0.027c0.018-0.187,0.071-0.442,0.161-0.763l1.658-5.827h0.842l1.59,5.869c0.056,0.201,0.098,0.438,0.126,0.71h0.021    c0.013-0.183,0.061-0.428,0.141-0.731l1.533-5.848H131.644z"/>
		<path fill="#628097" d="M137.911,16.923h-3.975V9.326h3.806v0.805h-2.928v2.527h2.709v0.8h-2.709v2.659h3.096V16.923z"/>
		<path fill="#628097" d="M140.533,16.923V9.326h2.133c0.648,0,1.163,0.161,1.543,0.482c0.38,0.321,0.57,0.74,0.57,1.255    c0,0.431-0.114,0.805-0.345,1.123c-0.231,0.318-0.547,0.544-0.951,0.678v0.021c0.504,0.06,0.91,0.253,1.213,0.58    c0.303,0.327,0.454,0.751,0.454,1.274c0,0.65-0.229,1.176-0.689,1.579c-0.46,0.402-1.041,0.604-1.743,0.604H140.533z     M141.412,10.131v2.453h0.899c0.481,0,0.859-0.117,1.135-0.352c0.275-0.234,0.413-0.566,0.413-0.993    c0-0.738-0.479-1.107-1.438-1.107H141.412z M141.412,13.384v2.733h1.192c0.515,0,0.916-0.124,1.2-0.371s0.426-0.586,0.426-1.017    c0-0.897-0.604-1.345-1.809-1.345H141.412z"/>
		<path fill="#628097" d="M151.826,16.923h-3.975V9.326h3.806v0.805h-2.928v2.527h2.709v0.8h-2.709v2.659h3.096V16.923z"/>
		<path fill="#628097" d="M159.823,16.923h-1.046l-1.256-2.129c-0.114-0.197-0.226-0.366-0.334-0.506    c-0.108-0.14-0.219-0.254-0.331-0.342c-0.114-0.088-0.235-0.152-0.367-0.193c-0.13-0.041-0.278-0.061-0.442-0.061h-0.72v3.232    h-0.879V9.326h2.238c0.327,0,0.63,0.041,0.907,0.124c0.278,0.083,0.518,0.209,0.722,0.379c0.204,0.169,0.364,0.381,0.479,0.633    c0.114,0.253,0.172,0.548,0.172,0.888c0,0.265-0.038,0.507-0.117,0.728c-0.078,0.221-0.191,0.418-0.336,0.591    c-0.143,0.173-0.318,0.32-0.522,0.442s-0.433,0.217-0.688,0.283v0.021c0.126,0.056,0.234,0.121,0.327,0.193    c0.092,0.072,0.18,0.158,0.263,0.257c0.084,0.098,0.167,0.211,0.249,0.336c0.083,0.126,0.175,0.271,0.275,0.437L159.823,16.923z     M155.326,10.131v2.755h1.192c0.219,0,0.422-0.034,0.609-0.101c0.186-0.067,0.348-0.163,0.484-0.289    c0.135-0.125,0.241-0.279,0.318-0.461s0.115-0.385,0.115-0.612c0-0.406-0.13-0.723-0.389-0.951    c-0.26-0.228-0.636-0.342-1.127-0.342H155.326z"/>
		<path fill="#628097" d="M165.793,16.616v-1.049c0.118,0.106,0.26,0.201,0.426,0.286c0.166,0.085,0.34,0.157,0.522,0.215    c0.183,0.058,0.367,0.104,0.552,0.135c0.185,0.032,0.357,0.047,0.513,0.047c0.54,0,0.944-0.101,1.21-0.304    c0.268-0.203,0.401-0.496,0.401-0.877c0-0.205-0.044-0.383-0.133-0.535c-0.089-0.152-0.213-0.291-0.37-0.416    c-0.157-0.126-0.342-0.246-0.556-0.36c-0.214-0.115-0.445-0.236-0.694-0.363c-0.26-0.134-0.504-0.27-0.732-0.408    c-0.226-0.138-0.423-0.29-0.59-0.456c-0.167-0.166-0.299-0.354-0.395-0.564c-0.096-0.21-0.143-0.456-0.143-0.739    c0-0.346,0.075-0.647,0.225-0.903c0.149-0.256,0.346-0.467,0.59-0.633c0.244-0.166,0.522-0.289,0.834-0.371    s0.63-0.122,0.954-0.122c0.74,0,1.278,0.09,1.617,0.27v1.001c-0.442-0.311-1.012-0.466-1.706-0.466    c-0.191,0-0.383,0.02-0.575,0.061c-0.191,0.041-0.362,0.107-0.512,0.199c-0.149,0.092-0.272,0.21-0.365,0.354    c-0.095,0.145-0.142,0.322-0.142,0.53c0,0.194,0.036,0.362,0.108,0.503c0.071,0.141,0.176,0.27,0.315,0.387    c0.141,0.116,0.311,0.229,0.51,0.339c0.201,0.109,0.432,0.23,0.694,0.36c0.268,0.135,0.522,0.276,0.763,0.424    c0.24,0.149,0.451,0.313,0.633,0.493c0.18,0.18,0.324,0.379,0.43,0.598c0.107,0.22,0.16,0.47,0.16,0.752    c0,0.375-0.072,0.692-0.217,0.951c-0.145,0.26-0.339,0.47-0.586,0.633c-0.246,0.162-0.528,0.28-0.849,0.352    c-0.321,0.072-0.66,0.109-1.015,0.109c-0.118,0-0.265-0.01-0.439-0.03c-0.175-0.019-0.352-0.047-0.534-0.084    c-0.18-0.037-0.352-0.083-0.515-0.138C166.021,16.744,165.891,16.682,165.793,16.616z"/>
		<path fill="#628097" d="M178.65,16.923h-0.879v-3.465h-3.88v3.465h-0.879V9.326h0.879v3.332h3.88V9.326h0.879V16.923z"/>
		<path fill="#628097" d="M187.6,16.923h-0.973l-0.794-2.129h-3.181l-0.747,2.129h-0.978l2.876-7.596h0.91L187.6,16.923z     M185.545,13.993l-1.178-3.236c-0.038-0.107-0.077-0.276-0.115-0.509h-0.021c-0.034,0.215-0.075,0.385-0.12,0.509l-1.167,3.236    H185.545z"/>
		<path fill="#628097" d="M195.927,16.923h-1.078l-3.86-6.055c-0.098-0.152-0.178-0.311-0.24-0.477h-0.033    c0.028,0.163,0.043,0.51,0.043,1.044v5.488h-0.879V9.326h1.139l3.756,5.959c0.157,0.247,0.257,0.416,0.303,0.509h0.021    c-0.036-0.219-0.052-0.592-0.052-1.118v-5.35h0.879V16.923z"/>
		<path fill="#628097" d="M199.072,16.923V9.326h2.071c2.642,0,3.963,1.234,3.963,3.703c0,1.172-0.367,2.115-1.101,2.826    s-1.716,1.067-2.947,1.067H199.072z M199.951,10.131v5.986h1.118c0.984,0,1.749-0.266,2.296-0.8    c0.547-0.533,0.821-1.289,0.821-2.267c0-1.946-1.021-2.919-3.064-2.919H199.951z"/>
		<path fill="#628097" d="M216.651,9.326l-2.118,7.596h-1.031l-1.541-5.552c-0.067-0.236-0.107-0.494-0.121-0.773h-0.021    c-0.021,0.261-0.067,0.516-0.136,0.763l-1.553,5.562h-1.019l-2.197-7.596h0.967l1.595,5.827c0.067,0.243,0.108,0.498,0.126,0.763    h0.027c0.018-0.187,0.071-0.442,0.161-0.763l1.658-5.827h0.842l1.59,5.869c0.056,0.201,0.098,0.438,0.126,0.71h0.021    c0.013-0.183,0.061-0.428,0.141-0.731l1.533-5.848H216.651z"/>
		<path fill="#628097" d="M219.822,9.326v7.596h-0.879V9.326H219.822z"/>
		<path fill="#628097" d="M228.075,16.604c-0.555,0.297-1.244,0.445-2.071,0.445c-1.067,0-1.922-0.348-2.562-1.044    c-0.642-0.696-0.963-1.609-0.963-2.739c0-1.215,0.361-2.196,1.083-2.945c0.722-0.749,1.638-1.123,2.746-1.123    c0.712,0,1.3,0.104,1.768,0.313v0.948c-0.537-0.304-1.129-0.456-1.778-0.456c-0.861,0-1.559,0.291-2.095,0.874    c-0.536,0.583-0.802,1.362-0.802,2.337c0,0.925,0.25,1.662,0.75,2.212c0.5,0.549,1.157,0.823,1.969,0.823    c0.753,0,1.405-0.169,1.956-0.508V16.604z"/>
		<path fill="#628097" d="M236,16.923h-1.223l-2.898-3.475c-0.108-0.131-0.175-0.219-0.198-0.265h-0.021v3.74h-0.879V9.326h0.879    v3.57h0.021c0.049-0.078,0.115-0.164,0.198-0.26l2.803-3.311h1.093l-3.216,3.644L236,16.923z"/>
		<path fill="#628097" d="M116.359,32.071h-0.973l-0.796-2.13h-3.179l-0.748,2.13h-0.978l2.875-7.596h0.911L116.359,32.071z     M114.303,29.14l-1.178-3.235c-0.038-0.107-0.077-0.276-0.115-0.509h-0.021c-0.033,0.215-0.074,0.385-0.118,0.509l-1.167,3.235    H114.303z"/>
		<path fill="#628097" d="M122.447,25.279h-2.928v2.628h2.709v0.8h-2.709v3.364h-0.879v-7.596h3.806V25.279z"/>
		<path fill="#628097" d="M128.855,25.279h-2.928v2.628h2.709v0.8h-2.709v3.364h-0.879v-7.596h3.806V25.279z"/>
		<path fill="#628097" d="M132.336,24.474v7.596h-0.879v-7.596H132.336z"/>
		<path fill="#628097" d="M139.376,32.071h-3.891v-7.596h0.879v6.792h3.012V32.071z"/>
		<path fill="#628097" d="M142.585,24.474v7.596h-0.879v-7.596H142.585z"/>
		<path fill="#628097" d="M151.539,32.071h-0.973l-0.794-2.13h-3.181l-0.747,2.13h-0.978l2.876-7.596h0.91L151.539,32.071z     M149.484,29.14l-1.178-3.235c-0.038-0.107-0.077-0.276-0.115-0.509h-0.021c-0.034,0.215-0.075,0.385-0.12,0.509l-1.167,3.235    H149.484z"/>
		<path fill="#628097" d="M158.255,25.279h-2.166v6.792h-0.879v-6.792h-2.16v-0.805h5.204V25.279z"/>
		<path fill="#628097" d="M164.585,32.071h-3.975v-7.596h3.806v0.805h-2.928v2.527h2.709v0.8h-2.709v2.66h3.096V32.071z"/>
		<path fill="#628097" d="M176.422,31.753c-0.555,0.297-1.244,0.445-2.071,0.445c-1.067,0-1.922-0.348-2.562-1.044    c-0.642-0.695-0.963-1.608-0.963-2.738c0-1.215,0.361-2.196,1.083-2.945c0.722-0.749,1.638-1.123,2.746-1.123    c0.712,0,1.3,0.104,1.768,0.313v0.948c-0.537-0.304-1.129-0.456-1.778-0.456c-0.861,0-1.559,0.291-2.095,0.874    c-0.536,0.583-0.802,1.362-0.802,2.337c0,0.925,0.25,1.662,0.75,2.211c0.5,0.55,1.157,0.824,1.969,0.824    c0.753,0,1.405-0.169,1.956-0.509V31.753z"/>
		<path fill="#628097" d="M182.152,32.198c-1.064,0-1.914-0.355-2.555-1.065c-0.639-0.71-0.96-1.633-0.96-2.77    c0-1.222,0.327-2.197,0.978-2.925c0.652-0.727,1.54-1.091,2.663-1.091c1.036,0,1.87,0.354,2.503,1.059    c0.632,0.706,0.948,1.63,0.948,2.771c0,1.24-0.324,2.219-0.972,2.939C184.107,31.837,183.239,32.198,182.152,32.198z     M182.215,25.153c-0.788,0-1.429,0.288-1.92,0.863c-0.491,0.575-0.737,1.331-0.737,2.267s0.24,1.689,0.719,2.26    c0.479,0.57,1.104,0.855,1.874,0.855c0.823,0,1.472-0.272,1.945-0.815c0.475-0.544,0.712-1.306,0.712-2.283    c0-1.003-0.229-1.778-0.691-2.325C183.658,25.426,183.023,25.153,182.215,25.153z"/>
		<path fill="#628097" d="M196.028,32.071h-0.873v-5.096c0-0.402,0.024-0.895,0.072-1.478h-0.021    c-0.083,0.342-0.158,0.588-0.225,0.737l-2.562,5.837h-0.429l-2.558-5.795c-0.072-0.169-0.148-0.429-0.225-0.779h-0.021    c0.028,0.304,0.041,0.8,0.041,1.489v5.085h-0.846v-7.596h1.161l2.3,5.297c0.178,0.405,0.293,0.71,0.345,0.911h0.033    c0.149-0.417,0.269-0.728,0.361-0.933l2.348-5.275h1.098V32.071z"/>
		<path fill="#628097" d="M200.057,29.199v2.871h-0.879v-7.596h2.061c0.802,0,1.423,0.197,1.864,0.593    c0.441,0.396,0.661,0.953,0.661,1.674c0,0.72-0.244,1.311-0.735,1.769c-0.49,0.459-1.151,0.689-1.984,0.689H200.057z     M200.057,25.279v3.115h0.92c0.607,0,1.07-0.141,1.388-0.422c0.32-0.28,0.479-0.677,0.479-1.189c0-1.002-0.586-1.504-1.757-1.504    H200.057z"/>
		<path fill="#628097" d="M212.159,32.071h-0.973l-0.794-2.13h-3.181l-0.747,2.13h-0.978l2.876-7.596h0.91L212.159,32.071z     M210.105,29.14l-1.178-3.235c-0.038-0.107-0.077-0.276-0.115-0.509h-0.021c-0.034,0.215-0.075,0.385-0.12,0.509l-1.167,3.235    H210.105z"/>
		<path fill="#628097" d="M220.488,32.071h-1.078l-3.86-6.055c-0.098-0.152-0.178-0.311-0.24-0.477h-0.033    c0.028,0.163,0.043,0.51,0.043,1.044v5.488h-0.879v-7.596h1.139l3.756,5.96c0.157,0.247,0.257,0.416,0.303,0.507h0.021    c-0.036-0.219-0.052-0.59-0.052-1.118v-5.349h0.879V32.071z"/>
		<path fill="#628097" d="M228.506,24.474l-2.475,4.789v2.808h-0.879v-2.787l-2.41-4.809h0.999l1.679,3.433    c0.021,0.042,0.081,0.197,0.182,0.466h0.016c0.036-0.12,0.101-0.275,0.198-0.466l1.757-3.433H228.506z"/>
	</g>
</g>
</svg>